<svg width="44" height="28" viewBox="0 0 44 28" fill="none" xmlns="http://www.w3.org/2000/svg">
<rect width="44" height="28" rx="5" fill="#010475"/>
<path d="M12 6V22" stroke="white" stroke-width="2" stroke-linecap="round" stroke-linejoin="round"/>
<path d="M15.3333 9H10.3333C9.71449 9 9.121 9.26339 8.68342 9.73223C8.24583 10.2011 8 10.837 8 11.5C8 12.163 8.24583 12.7989 8.68342 13.2678C9.121 13.7366 9.71449 14 10.3333 14H13.6667C14.2855 14 14.879 14.2634 15.3166 14.7322C15.7542 15.2011 16 15.837 16 16.5C16 17.163 15.7542 17.7989 15.3166 18.2678C14.879 18.7366 14.2855 19 13.6667 19H8" stroke="white" stroke-width="2" stroke-linecap="round" stroke-linejoin="round"/>
<path d="M25 9C29.6863 9 32.3137 9 37 9" stroke="white" stroke-width="2" stroke-linecap="round"/>
<path d="M25 14C29.6863 14 32.3137 14 37 14" stroke="white" stroke-width="2" stroke-linecap="round"/>
<path d="M25 19C29.6863 19 32.3137 19 37 19" stroke="white" stroke-width="2" stroke-linecap="round"/>
<path d="M20 9C20.3905 9 20.6095 9 21 9" stroke="white" stroke-width="2" stroke-linecap="round"/>
<path d="M20 14C20.3905 14 20.6095 14 21 14" stroke="white" stroke-width="2" stroke-linecap="round"/>
<path d="M20 19C20.3905 19 20.6095 19 21 19" stroke="white" stroke-width="2" stroke-linecap="round"/>
</svg>
