<svg width="28" height="28" viewBox="0 0 28 28" fill="none" xmlns="http://www.w3.org/2000/svg">
<path d="M27.9991 20.9634V25.1785C28.0007 25.5698 27.9204 25.9571 27.7633 26.3157C27.6063 26.6742 27.3759 26.9961 27.087 27.2606C26.798 27.5251 26.457 27.7265 26.0855 27.8519C25.7141 27.9773 25.3206 28.0238 24.9301 27.9886C20.5979 27.5188 16.4366 26.0414 12.7805 23.6751C9.3789 21.5179 6.49497 18.6397 4.33347 15.2449C1.9542 11.5794 0.473538 7.40611 0.011427 3.06313C-0.0237541 2.67459 0.0225135 2.28299 0.147283 1.91328C0.272053 1.54356 0.472592 1.20382 0.736131 0.915692C0.999671 0.627562 1.32044 0.397355 1.67801 0.239727C2.03558 0.0820988 2.42212 0.000503612 2.81301 0.000136222H7.03651C7.71974 -0.00657489 8.3821 0.234889 8.90014 0.67952C9.41818 1.12415 9.75655 1.74161 9.85217 2.41681C10.0304 3.76574 10.361 5.09022 10.8377 6.36498C11.0271 6.86788 11.0681 7.41443 10.9558 7.93987C10.8435 8.4653 10.5826 8.94761 10.2041 9.32962L8.41619 11.114C10.4203 14.6316 13.3386 17.5441 16.8632 19.5443L18.6511 17.7599C19.0339 17.3821 19.5172 17.1218 20.0436 17.0097C20.5701 16.8977 21.1178 16.9386 21.6217 17.1276C22.8989 17.6033 24.226 17.9332 25.5777 18.1111C26.2615 18.2074 26.8861 18.5512 27.3326 19.0771C27.779 19.603 28.0163 20.2743 27.9991 20.9634Z" fill="#010475"/>
</svg>
